<svg width="21" height="21" viewBox="0 0 21 21" fill="none" xmlns="http://www.w3.org/2000/svg">
<path d="M18.375 11.1912C18.2373 12.6807 17.6784 14.1001 16.7634 15.2834C15.8485 16.4668 14.6155 17.3651 13.2087 17.8732C11.8019 18.3814 10.2795 18.4784 8.81954 18.1528C7.35962 17.8273 6.02259 17.0927 4.96492 16.0351C3.90725 14.9774 3.17267 13.6404 2.84714 12.1804C2.52162 10.7205 2.6186 9.19807 3.12675 7.79126C3.6349 6.38445 4.5332 5.15145 5.71654 4.23653C6.89987 3.32162 8.3193 2.76264 9.80873 2.625C8.93671 3.80473 8.51709 5.25827 8.62619 6.72124C8.73529 8.18421 9.36585 9.55943 10.4032 10.5968C11.4405 11.6341 12.8158 12.2647 14.2787 12.3738C15.7417 12.4829 17.1952 12.0633 18.375 11.1912Z" stroke="#677994" stroke-width="2" stroke-linecap="round" stroke-linejoin="round"/>
</svg>
