<svg width="21" height="21" viewBox="0 0 21 21" fill="none" xmlns="http://www.w3.org/2000/svg">
<g clip-path="url(#clip0_151_78)">
<path d="M12.25 12.915V3.0625C12.25 2.48234 12.0195 1.92594 11.6093 1.5157C11.1991 1.10547 10.6427 0.875 10.0625 0.875C9.48234 0.875 8.92594 1.10547 8.5157 1.5157C8.10547 1.92594 7.875 2.48234 7.875 3.0625V12.915C7.17262 13.3843 6.63978 14.067 6.35519 14.8624C6.07059 15.6578 6.04933 16.5235 6.29454 17.3319C6.53974 18.1403 7.03842 18.8484 7.71692 19.3516C8.39542 19.8548 9.21776 20.1264 10.0625 20.1264C10.9072 20.1264 11.7296 19.8548 12.4081 19.3516C13.0866 18.8484 13.5853 18.1403 13.8305 17.3319C14.0757 16.5235 14.0544 15.6578 13.7698 14.8624C13.4852 14.067 12.9524 13.3843 12.25 12.915Z" stroke="#677994" stroke-width="2" stroke-linecap="round" stroke-linejoin="round"/>
</g>
<defs>
<clipPath id="clip0_151_78">
<rect width="21" height="21" fill="white"/>
</clipPath>
</defs>
</svg>
