<svg width="121" height="121" viewBox="0 0 121 121" fill="none" xmlns="http://www.w3.org/2000/svg">
<circle cx="60.5" cy="60.5" r="60.5" fill="#101010" fill-opacity="0.4"/>
<path fill-rule="evenodd" clip-rule="evenodd" d="M35.9229 112.483C43.6068 116.116 52.0006 118 60.5 118V105C51.3142 105 42.3535 102.157 34.8475 96.8621C27.3416 91.5668 21.6582 84.0785 18.5774 75.4247C15.4966 66.771 15.1693 57.3758 17.6405 48.5287C20.1117 39.6815 25.2601 31.8158 32.3794 26.0111C39.4987 20.2064 48.2399 16.7471 57.4035 16.1079C64.289 15.6276 71.1595 16.7573 77.483 19.3681L82.4443 7.3521C74.5881 4.10839 66.1106 2.64664 57.6218 3.07208C49.1331 3.49752 40.8442 5.79956 33.3517 9.81252C25.8593 13.8255 19.3497 19.4495 14.2914 26.2799C9.23311 33.1103 5.75197 40.9771 4.09852 49.3142C2.44507 57.6512 2.66044 66.2512 4.72913 74.495C6.79781 82.7388 10.6684 90.4215 16.0622 96.9902C21.456 103.559 28.239 108.85 35.9229 112.483Z" fill="#8388EB"/>
<path fill-rule="evenodd" clip-rule="evenodd" d="M36.5919 94.4213C43.5889 99.3529 51.9397 102 60.5 102L60.5 88C45.3122 88 33 75.6879 33 60.5C33 45.3122 45.3122 33 60.5 33C75.6878 33 88 45.3122 88 60.5C88 62.3633 87.8147 64.1832 87.4615 65.9425L101.179 68.7116C102.873 60.3206 101.931 51.6111 98.4813 43.7766C95.0317 35.9422 89.2439 29.3662 81.9109 24.9497C74.5779 20.5333 66.0585 18.4925 57.5204 19.1071C48.9822 19.7217 40.843 22.9616 34.2182 28.3828C27.5933 33.804 22.807 41.1412 20.5151 49.389C18.2232 57.6367 18.5379 66.3914 21.416 74.4533C24.2942 82.5152 29.595 89.4898 36.5919 94.4213Z" fill="#D0AC66"/>
</svg>
